<mxfile host="app.diagrams.net" agent="Mozilla/5.0 (Macintosh; Intel Mac OS X 10_15_7) AppleWebKit/537.36 (KHTML, like Gecko) Chrome/126.0.0.0 Safari/537.36" version="24.7.4">
  <diagram id="3f6dvp0hNgbr95FAqJg2" name="第 1 页">
    <mxGraphModel dx="1193" dy="576" grid="1" gridSize="10" guides="1" tooltips="1" connect="1" arrows="1" fold="1" page="1" pageScale="1" pageWidth="827" pageHeight="1169" math="0" shadow="0">
      <root>
        <mxCell id="0" />
        <mxCell id="1" parent="0" />
        <mxCell id="4m56Xs7wiAnP6-3KmZiE-1" value="普通管理员" style="shape=umlActor;verticalLabelPosition=bottom;verticalAlign=top;html=1;" vertex="1" parent="1">
          <mxGeometry x="120" y="110" width="30" height="60" as="geometry" />
        </mxCell>
        <mxCell id="4m56Xs7wiAnP6-3KmZiE-2" value="超级管理员" style="shape=umlActor;verticalLabelPosition=bottom;verticalAlign=top;html=1;" vertex="1" parent="1">
          <mxGeometry x="120" y="260" width="30" height="60" as="geometry" />
        </mxCell>
        <mxCell id="4m56Xs7wiAnP6-3KmZiE-3" value="审核员" style="shape=umlActor;verticalLabelPosition=bottom;verticalAlign=top;html=1;" vertex="1" parent="1">
          <mxGeometry x="120" y="400" width="30" height="60" as="geometry" />
        </mxCell>
        <mxCell id="4m56Xs7wiAnP6-3KmZiE-13" value="反馈处理" style="ellipse;whiteSpace=wrap;html=1;" vertex="1" parent="1">
          <mxGeometry x="310" y="130" width="140" height="80" as="geometry" />
        </mxCell>
        <mxCell id="4m56Xs7wiAnP6-3KmZiE-14" value="配置管理" style="ellipse;whiteSpace=wrap;html=1;" vertex="1" parent="1">
          <mxGeometry x="320" y="370" width="140" height="80" as="geometry" />
        </mxCell>
        <mxCell id="4m56Xs7wiAnP6-3KmZiE-17" value="反馈查看" style="ellipse;whiteSpace=wrap;html=1;" vertex="1" parent="1">
          <mxGeometry x="601" y="60" width="100" height="50" as="geometry" />
        </mxCell>
        <mxCell id="4m56Xs7wiAnP6-3KmZiE-18" value="反馈导出" style="ellipse;whiteSpace=wrap;html=1;" vertex="1" parent="1">
          <mxGeometry x="601" y="120" width="100" height="50" as="geometry" />
        </mxCell>
        <mxCell id="4m56Xs7wiAnP6-3KmZiE-19" value="反馈处理" style="ellipse;whiteSpace=wrap;html=1;" vertex="1" parent="1">
          <mxGeometry x="601" y="180" width="100" height="50" as="geometry" />
        </mxCell>
        <mxCell id="4m56Xs7wiAnP6-3KmZiE-20" value="反馈删除" style="ellipse;whiteSpace=wrap;html=1;" vertex="1" parent="1">
          <mxGeometry x="601" y="240" width="100" height="50" as="geometry" />
        </mxCell>
        <mxCell id="4m56Xs7wiAnP6-3KmZiE-22" value="帮助中心" style="ellipse;whiteSpace=wrap;html=1;" vertex="1" parent="1">
          <mxGeometry x="601" y="320" width="100" height="50" as="geometry" />
        </mxCell>
        <mxCell id="4m56Xs7wiAnP6-3KmZiE-24" value="反馈类型管理" style="ellipse;whiteSpace=wrap;html=1;" vertex="1" parent="1">
          <mxGeometry x="601" y="380" width="100" height="50" as="geometry" />
        </mxCell>
        <mxCell id="4m56Xs7wiAnP6-3KmZiE-25" value="系统反馈库" style="ellipse;whiteSpace=wrap;html=1;" vertex="1" parent="1">
          <mxGeometry x="601" y="440" width="100" height="50" as="geometry" />
        </mxCell>
        <mxCell id="4m56Xs7wiAnP6-3KmZiE-27" value="" style="endArrow=classic;html=1;rounded=0;entryX=-0.039;entryY=0.612;entryDx=0;entryDy=0;entryPerimeter=0;" edge="1" parent="1" target="4m56Xs7wiAnP6-3KmZiE-13">
          <mxGeometry width="50" height="50" relative="1" as="geometry">
            <mxPoint x="150" y="300" as="sourcePoint" />
            <mxPoint x="200" y="250" as="targetPoint" />
          </mxGeometry>
        </mxCell>
        <mxCell id="4m56Xs7wiAnP6-3KmZiE-28" value="" style="endArrow=classic;html=1;rounded=0;" edge="1" parent="1" target="4m56Xs7wiAnP6-3KmZiE-14">
          <mxGeometry width="50" height="50" relative="1" as="geometry">
            <mxPoint x="150" y="300" as="sourcePoint" />
            <mxPoint x="230" y="290" as="targetPoint" />
          </mxGeometry>
        </mxCell>
        <mxCell id="4m56Xs7wiAnP6-3KmZiE-29" value="" style="endArrow=classic;html=1;rounded=0;entryX=0;entryY=0.5;entryDx=0;entryDy=0;" edge="1" parent="1" target="4m56Xs7wiAnP6-3KmZiE-17">
          <mxGeometry width="50" height="50" relative="1" as="geometry">
            <mxPoint x="450" y="170" as="sourcePoint" />
            <mxPoint x="500" y="120" as="targetPoint" />
          </mxGeometry>
        </mxCell>
        <mxCell id="4m56Xs7wiAnP6-3KmZiE-30" value="" style="endArrow=classic;html=1;rounded=0;exitX=1;exitY=0.5;exitDx=0;exitDy=0;entryX=0;entryY=0.5;entryDx=0;entryDy=0;" edge="1" parent="1" source="4m56Xs7wiAnP6-3KmZiE-13" target="4m56Xs7wiAnP6-3KmZiE-18">
          <mxGeometry width="50" height="50" relative="1" as="geometry">
            <mxPoint x="430" y="280" as="sourcePoint" />
            <mxPoint x="480" y="230" as="targetPoint" />
          </mxGeometry>
        </mxCell>
        <mxCell id="4m56Xs7wiAnP6-3KmZiE-31" value="" style="endArrow=classic;html=1;rounded=0;exitX=1;exitY=0.5;exitDx=0;exitDy=0;" edge="1" parent="1" source="4m56Xs7wiAnP6-3KmZiE-13" target="4m56Xs7wiAnP6-3KmZiE-19">
          <mxGeometry width="50" height="50" relative="1" as="geometry">
            <mxPoint x="480" y="250" as="sourcePoint" />
            <mxPoint x="530" y="200" as="targetPoint" />
          </mxGeometry>
        </mxCell>
        <mxCell id="4m56Xs7wiAnP6-3KmZiE-32" value="" style="endArrow=classic;html=1;rounded=0;exitX=1;exitY=0.5;exitDx=0;exitDy=0;" edge="1" parent="1" source="4m56Xs7wiAnP6-3KmZiE-13">
          <mxGeometry width="50" height="50" relative="1" as="geometry">
            <mxPoint x="460" y="179" as="sourcePoint" />
            <mxPoint x="600" y="260" as="targetPoint" />
          </mxGeometry>
        </mxCell>
        <mxCell id="4m56Xs7wiAnP6-3KmZiE-33" value="" style="endArrow=classic;html=1;rounded=0;" edge="1" parent="1" target="4m56Xs7wiAnP6-3KmZiE-22">
          <mxGeometry width="50" height="50" relative="1" as="geometry">
            <mxPoint x="460" y="410" as="sourcePoint" />
            <mxPoint x="510" y="360" as="targetPoint" />
          </mxGeometry>
        </mxCell>
        <mxCell id="4m56Xs7wiAnP6-3KmZiE-34" value="" style="endArrow=classic;html=1;rounded=0;exitX=1;exitY=0.5;exitDx=0;exitDy=0;entryX=0.06;entryY=0.68;entryDx=0;entryDy=0;entryPerimeter=0;" edge="1" parent="1" source="4m56Xs7wiAnP6-3KmZiE-14" target="4m56Xs7wiAnP6-3KmZiE-24">
          <mxGeometry width="50" height="50" relative="1" as="geometry">
            <mxPoint x="500" y="490" as="sourcePoint" />
            <mxPoint x="550" y="440" as="targetPoint" />
          </mxGeometry>
        </mxCell>
        <mxCell id="4m56Xs7wiAnP6-3KmZiE-35" value="" style="endArrow=classic;html=1;rounded=0;" edge="1" parent="1" target="4m56Xs7wiAnP6-3KmZiE-25">
          <mxGeometry width="50" height="50" relative="1" as="geometry">
            <mxPoint x="460" y="410" as="sourcePoint" />
            <mxPoint x="560" y="460" as="targetPoint" />
          </mxGeometry>
        </mxCell>
        <mxCell id="4m56Xs7wiAnP6-3KmZiE-36" value="" style="endArrow=classic;html=1;rounded=0;entryX=0;entryY=0.5;entryDx=0;entryDy=0;" edge="1" parent="1" source="4m56Xs7wiAnP6-3KmZiE-1" target="4m56Xs7wiAnP6-3KmZiE-13">
          <mxGeometry width="50" height="50" relative="1" as="geometry">
            <mxPoint x="380" y="300" as="sourcePoint" />
            <mxPoint x="430" y="250" as="targetPoint" />
          </mxGeometry>
        </mxCell>
        <mxCell id="4m56Xs7wiAnP6-3KmZiE-37" value="" style="endArrow=classic;html=1;rounded=0;entryX=0;entryY=0.75;entryDx=0;entryDy=0;entryPerimeter=0;" edge="1" parent="1" target="4m56Xs7wiAnP6-3KmZiE-13">
          <mxGeometry width="50" height="50" relative="1" as="geometry">
            <mxPoint x="150" y="440" as="sourcePoint" />
            <mxPoint x="200" y="390" as="targetPoint" />
          </mxGeometry>
        </mxCell>
      </root>
    </mxGraphModel>
  </diagram>
</mxfile>
